<svg width="72" height="72" viewBox="0 0 72 72" fill="none" xmlns="http://www.w3.org/2000/svg">
<g clip-path="url(#clip0_219_340)">
<path d="M69.8396 39.53C69.8396 39.53 69.8396 39.47 69.8396 39.44L66.6796 25.43C66.6396 25.24 66.5496 25.06 66.4196 24.91L56.5797 13.06C56.4697 12.93 56.3396 12.83 56.1996 12.75L44.0696 6.42999C44.0696 6.42999 43.9896 6.39999 43.9596 6.38999C43.9196 6.36999 43.8797 6.34999 43.8297 6.33999C43.7197 6.30999 43.6097 6.28999 43.4897 6.28999H31.6796C31.5796 6.28999 31.4696 6.29999 31.3696 6.32999L15.6396 10.36C15.5096 10.39 15.3896 10.45 15.2796 10.53C15.2496 10.55 15.2196 10.57 15.1996 10.59C15.1596 10.62 15.1196 10.64 15.0796 10.68L2.50965 22.99C2.50965 22.99 2.50965 22.99 2.49965 23C2.38965 23.11 2.30965 23.24 2.24965 23.37C2.24965 23.38 2.23965 23.39 2.22965 23.4C2.22965 23.4 2.22965 23.4 2.22965 23.41C2.17965 23.55 2.14965 23.69 2.13965 23.84C2.13965 23.86 2.13965 23.89 2.13965 23.91C2.13965 23.93 2.13965 23.94 2.13965 23.96L3.09965 38.08C3.12965 38.54 3.41965 38.95 3.84965 39.14L15.1496 44.1L22.2996 53.74C22.3396 53.79 22.3896 53.84 22.4396 53.89C22.4596 53.91 22.4696 53.92 22.4796 53.94C22.5496 54 22.6296 54.06 22.7196 54.1C22.7396 54.11 22.7696 54.12 22.7996 54.13C22.8596 54.16 22.9196 54.18 22.9896 54.2C23.0296 54.2 23.0596 54.21 23.0996 54.22C23.1396 54.22 23.1796 54.24 23.2296 54.24L35.7796 55.03L45.3196 65.51C45.3196 65.51 45.3696 65.54 45.3896 65.56C45.4696 65.64 45.5696 65.71 45.6696 65.76C45.7096 65.78 45.7496 65.81 45.7896 65.82C45.9296 65.88 46.0797 65.91 46.2397 65.91C46.3597 65.91 46.4696 65.89 46.5896 65.86C46.6096 65.86 46.6196 65.84 46.6396 65.83C46.6596 65.83 46.6796 65.83 46.6996 65.82C46.8196 65.77 46.9296 65.71 47.0196 65.63C47.0196 65.63 47.0296 65.62 47.0396 65.61C47.1496 65.52 47.2397 65.41 47.3097 65.29C47.3297 65.25 47.3496 65.21 47.3596 65.17C47.3996 65.08 47.4396 64.98 47.4496 64.88C47.4496 64.83 47.4697 64.79 47.4697 64.74C47.4697 64.71 47.4796 64.67 47.4796 64.64L47.3496 57.36L49.0996 50.45L61.5496 51.83C62.0196 51.88 62.4897 51.66 62.7397 51.26L69.6696 40.38C69.6696 40.38 69.6997 40.29 69.7197 40.24C69.7597 40.16 69.7896 40.09 69.8096 40C69.8296 39.92 69.8296 39.84 69.8396 39.76C69.8396 39.71 69.8596 39.66 69.8596 39.6C69.8596 39.57 69.8396 39.55 69.8396 39.52V39.53ZM54.8196 14.85L62.5696 24.18L45.8696 21.1L44.9196 9.68999L54.8196 14.84V14.85ZM45.4596 23.57L60.6996 26.38L40.7096 39.8L45.4596 23.57ZM27.3796 31.3L26.6196 32.11L25.7896 31.31C25.3196 31.58 24.7596 31.73 24.1196 31.73C22.1196 31.73 20.8696 30.25 20.8696 28.27C20.8696 26.29 22.1296 24.81 24.1196 24.81C26.1096 24.81 27.3796 26.29 27.3796 28.27C27.3796 29.19 27.1096 30 26.6196 30.6L27.3696 31.31L27.3796 31.3ZM37.4096 28.33C37.4096 27.44 37.2396 26.59 36.9596 25.8L42.8596 23.58L38.0496 40.03L30.7096 35.7C30.4796 35.72 30.2396 35.74 29.9996 35.74C34.0896 35.74 37.4096 32.42 37.4096 28.33ZM36.4096 24.62C36.4096 24.62 36.4196 24.64 36.4296 24.65C36.4296 24.64 36.4196 24.63 36.4096 24.62ZM43.3297 20.76C43.3297 20.76 43.2296 20.78 43.1796 20.79L35.6996 23.6C34.6996 22.4 33.3296 21.52 31.7596 21.14L42.3896 9.47999L43.3297 20.76ZM30.8796 20.98C30.8796 20.98 30.9196 20.98 30.9396 20.98C30.9196 20.98 30.8996 20.98 30.8796 20.98ZM31.8296 8.78999H39.6396L28.5796 20.92H19.1896L17.4096 12.49L31.8196 8.78999H31.8296ZM18.7196 26.82H20.2296V31.57H18.7196V26.82ZM18.7196 26.16V24.94H20.2296V26.16H18.7196ZM15.1996 14.06L16.6496 20.92H15.9396C13.0396 20.92 10.5396 22.59 9.31965 25.01L5.60965 23.46L15.1996 14.06ZM14.6296 41.15L5.53965 37.16L4.76965 25.81L8.58965 27.41C8.54965 27.71 8.52965 28.01 8.52965 28.32C8.52965 32.41 11.8496 35.73 15.9396 35.73H16.7596L14.6396 41.15H14.6296ZM16.9496 42.35C16.9496 42.35 16.8996 42.3 16.8796 42.27L19.4396 35.73H25.8496L36.9796 42.3L23.5896 51.29L16.9496 42.34V42.35ZM37.2796 52.98C37.0596 52.74 36.7596 52.59 36.4296 52.57L27.0496 51.98L38.8696 44.05L43.4996 59.82L37.2796 52.98ZM61.0496 49.27L48.2896 47.85C47.6696 47.78 47.0896 48.18 46.9396 48.79L45.0496 56.24L41.2296 43.23L66.2096 41.17L61.0496 49.27ZM44.1896 40.48L64.4496 26.88L67.0896 38.59L44.1896 40.48Z" fill="white"/>
<path d="M24.1293 26.13C23.0693 26.13 22.5293 27.06 22.5293 28.26C22.5293 29.46 23.0693 30.38 24.1293 30.38C24.3493 30.38 24.5493 30.34 24.7193 30.27L24.1193 29.69L24.8793 28.9L25.4893 29.48C25.6493 29.14 25.7193 28.72 25.7193 28.26C25.7193 27.05 25.1993 26.13 24.1293 26.13Z" fill="white"/>
</g>
<defs>
<clipPath id="clip0_219_340">
<rect width="72" height="72" fill="white"/>
</clipPath>
</defs>
</svg>
